<?xml version="1.0" encoding="utf-8"?>
<!-- Generator: Adobe Illustrator 24.3.0, SVG Export Plug-In . SVG Version: 6.00 Build 0)  -->
<svg version="1.1" id="Layer_1" xmlns="http://www.w3.org/2000/svg" xmlns:xlink="http://www.w3.org/1999/xlink" x="0px" y="0px"
	 viewBox="0 0 288 459" style="enable-background:new 0 0 288 459;" xml:space="preserve">
<style type="text/css">
	.st0{fill-rule:evenodd;clip-rule:evenodd;fill:#121515;}
	.st1{fill-rule:evenodd;clip-rule:evenodd;fill:#3B4245;}
	.st2{fill-rule:evenodd;clip-rule:evenodd;fill:#272C2D;}
	.st3{opacity:0.4;fill-rule:evenodd;clip-rule:evenodd;fill:#647074;enable-background:new    ;}
	.st4{fill-rule:evenodd;clip-rule:evenodd;fill:#FFFFFF;filter:url(#Adobe_OpacityMaskFilter);}
	.st5{mask:url(#mask0_72_527_2_);}
	.st6{fill:none;}
	.st7{fill:#FFFFFF;}
	.st8{fill:#086B9F;}
	.st9{fill:#6B7381;}
	.st10{fill:#020203;}
</style>
<g>
	<path class="st0" d="M270.7,125.5h0.5c0.5,0,1,0.4,1,0.9V172c0,0.5-0.4,0.9-1,0.9h-0.5V125.5z"/>
	<path class="st0" d="M69.4,154c0-0.5,0.4-0.9,0.9-0.9h0.5v29.9h-0.5c-0.5,0-0.9-0.4-0.9-0.9V154z"/>
	<path class="st0" d="M69.4,116.5c0-0.5,0.4-0.9,0.9-0.9h0.5v29.9h-0.5c-0.5,0-0.9-0.4-0.9-0.9V116.5z"/>
	<path class="st0" d="M69.4,87.5c0-0.5,0.4-0.9,0.9-0.9h0.5v15.7h-0.5c-0.5,0-0.9-0.4-0.9-0.9V87.5z"/>
	<g>
		<path class="st1" d="M70.9,61.9c0-16.5,13.4-29.9,29.9-29.9h140c16.5,0,29.9,13.4,29.9,29.9v347.5c0,16.5-13.4,29.9-29.9,29.9
			h-140c-16.5,0-29.9-13.4-29.9-29.9V61.9z"/>
	</g>
	<path class="st0" d="M73.9,61.9c0-15.2,12.3-27.5,27.5-27.5h140c15.2,0,27.5,12.3,27.5,27.5v347.5c0,15.2-12.3,27.5-27.5,27.5h-140
		c-15.2,0-27.5-12.3-27.5-27.5V61.9z"/>
	<path class="st2" d="M192.4,51c2.1,0,3.8-1.7,3.8-3.8c0-2.1-1.7-3.8-3.8-3.8s-3.8,1.7-3.8,3.8C188.6,49.3,190.3,51,192.4,51z"/>
	<path class="st0" d="M192.4,49.6c1.3,0,2.4-1.1,2.4-2.4c0-1.3-1.1-2.4-2.4-2.4c-1.3,0-2.4,1.1-2.4,2.4
		C190,48.5,191.1,49.6,192.4,49.6z"/>
	<path class="st3" d="M192.4,46.7c0.3,0,0.5-0.2,0.5-0.5c0-0.3-0.2-0.5-0.5-0.5c-0.3,0-0.5,0.2-0.5,0.5
		C191.9,46.5,192.1,46.7,192.4,46.7z"/>
	<path class="st2" d="M158.7,47.2c0-0.8,0.6-1.4,1.4-1.4h21.4c0.8,0,1.4,0.6,1.4,1.4c0,0.8-0.6,1.4-1.4,1.4h-21.4
		C159.3,48.6,158.7,48,158.7,47.2z"/>
	<defs>
		<filter id="Adobe_OpacityMaskFilter" filterUnits="userSpaceOnUse" x="76.7" y="39.3" width="189.4" height="390.8">
			<feColorMatrix  type="matrix" values="1 0 0 0 0  0 1 0 0 0  0 0 1 0 0  0 0 0 1 0"/>
		</filter>
	</defs>
	<mask maskUnits="userSpaceOnUse" x="76.7" y="39.3" width="189.4" height="390.8" id="mask0_72_527_2_">
		<path class="st4" d="M132.1,57.1h77.4c6.3,0,11.4-5.1,11.4-12c0.1-1.2,1-2.2,2.3-2.3l18.6,0c10,0,18,8.1,18,18v349.4
			c0,10-8.1,18-18,18H99.8c-10,0-18-8.1-18-18V60.9c0-10,8.1-18,18-18h18.6c1.2,0.1,2.2,1,2.3,2.3C120.7,52,125.8,57.1,132.1,57.1z"
			/>
	</mask>
	<g class="st5">
		<path class="st6" d="M81.8,42.9h178v385.4h-178V42.9z"/>
		<rect x="81.8" y="42.9" class="st6" width="178" height="385.4"/>
		<g>
			<defs>
				<path id="SVGID_3_" d="M76.7,66c0-14.8,12-26.7,26.7-26.7h135.9c14.8,0,26.7,12,26.7,26.7v337.3c0,14.8-12,26.7-26.7,26.7H103.5
					c-14.8,0-26.7-12-26.7-26.7V66z"/>
			</defs>
			<clipPath id="SVGID_1_">
				<use xlink:href="#SVGID_3_"  style="overflow:visible;"/>
			</clipPath>
			<g transform="matrix(1 -1.164153e-10 0 1 0 0)" style="clip-path:url(#SVGID_1_);">
				
					<image style="overflow:visible;" width="375" height="812" xlink:href="25.png"  transform="matrix(0.4803 8.864882e-04 -8.697392e-04 0.4712 81.7316 43.1839)">
				</image>
			</g>
		</g>
	</g>
</g>
<g>
	<path class="st7" d="M66.8,73L66.8,73c13.2-1.4,25.1,8.2,26.5,21.4l0,0c1.4,13.2-8.2,25.1-21.4,26.5l0,0
		c-13.2,1.4-25.1-8.2-26.5-21.4l0,0C44,86.2,53.6,74.4,66.8,73z"/>
</g>
<path class="st8" d="M58.6,91c0-0.2,0-0.4,0.2-0.6c0.1-0.2,0.3-0.3,0.6-0.3c3-0.3,5.7-1.7,8.3-4.1c0.1-0.1,0.3-0.2,0.5-0.2
	c0.2,0,0.4,0,0.5,0.1c3,1.8,6,2.6,9,2.2c0.2,0,0.4,0,0.6,0.2c0.2,0.1,0.3,0.3,0.3,0.6l0.6,5.8c0,0.2,0,0.4,0,0.6
	c-0.6-0.5-1.3-0.8-2.1-0.9c-0.8-0.1-1.5,0.1-2.2,0.5c-0.7,0.4-1.2,0.9-1.6,1.6c-0.4,0.7-0.5,1.5-0.4,2.2l0,0.1
	c-0.6,0.2-1.1,0.6-1.5,1.1c-0.4,0.5-0.5,1.2-0.4,1.8l0.6,5.5c0,0.1,0,0.1,0,0.2c-0.3,0.1-0.5,0.3-0.8,0.4c-0.2,0.1-0.4,0.1-0.6,0.1
	c-6.7-1.8-10.4-5.6-11-11.1L58.6,91z M74.1,99.8L74,98.6c-0.1-0.7,0.1-1.5,0.6-2c0.5-0.6,1.1-0.9,1.9-1c0.7-0.1,1.5,0.1,2,0.6
	c0.6,0.5,0.9,1.1,1,1.9l0.1,1.1l0.6-0.1c0.4,0,0.9,0.1,1.2,0.4c0.3,0.3,0.6,0.7,0.6,1.1l0.6,5.5c0,0.4-0.1,0.9-0.4,1.2
	c-0.3,0.3-0.7,0.6-1.1,0.6l-6.7,0.7c-0.4,0-0.9-0.1-1.2-0.4c-0.3-0.3-0.6-0.7-0.6-1.1l-0.6-5.5c0-0.4,0.1-0.9,0.4-1.2
	c0.3-0.3,0.7-0.6,1.1-0.6L74.1,99.8z M75.7,98.5l0.1,1.1l2.2-0.2l-0.1-1.1c0-0.3-0.2-0.6-0.4-0.7c-0.2-0.2-0.5-0.3-0.8-0.2
	c-0.3,0-0.6,0.2-0.7,0.4C75.7,97.9,75.6,98.2,75.7,98.5z M78.5,103.8c0-0.3-0.2-0.6-0.4-0.7c-0.2-0.2-0.5-0.3-0.8-0.2
	c-0.3,0-0.6,0.2-0.7,0.4c-0.2,0.2-0.3,0.5-0.2,0.8c0,0.3,0.2,0.6,0.4,0.7c0.2,0.2,0.5,0.3,0.8,0.2c0.3,0,0.6-0.2,0.7-0.4
	C78.4,104.4,78.5,104.1,78.5,103.8z"/>
<g>
	<path class="st7" d="M37.4,261h126c4.4,0,8,3.6,8,8v35c0,4.4-3.6,8-8,8h-126c-4.4,0-8-3.6-8-8v-35C29.4,264.6,33,261,37.4,261z"/>
</g>
<path class="st8" d="M43.3,283h-1.5l0-1.1h1.5c0.4,0,0.7-0.1,1-0.3c0.3-0.2,0.5-0.4,0.6-0.8c0.1-0.3,0.2-0.7,0.2-1.2v-0.3
	c0-0.4,0-0.7-0.1-1c-0.1-0.3-0.2-0.5-0.3-0.7c-0.1-0.2-0.3-0.3-0.6-0.4c-0.2-0.1-0.5-0.1-0.8-0.1h-1.6v-1.1h1.6
	c0.5,0,0.9,0.1,1.3,0.2c0.4,0.2,0.7,0.4,1,0.7c0.3,0.3,0.5,0.7,0.7,1.1c0.2,0.4,0.2,0.9,0.2,1.4v0.3c0,0.5-0.1,1-0.2,1.4
	c-0.2,0.4-0.4,0.8-0.7,1.1c-0.3,0.3-0.6,0.5-1,0.7C44.2,282.9,43.7,283,43.3,283z M42.5,275.9v7.1h-1.5v-7.1H42.5z M49.3,277.7v5.3
	h-1.4v-5.3H49.3z M47.8,276.3c0-0.2,0.1-0.4,0.2-0.5c0.1-0.1,0.3-0.2,0.6-0.2c0.2,0,0.4,0.1,0.6,0.2c0.1,0.1,0.2,0.3,0.2,0.5
	c0,0.2-0.1,0.4-0.2,0.5c-0.1,0.1-0.3,0.2-0.6,0.2c-0.2,0-0.4-0.1-0.6-0.2C47.8,276.7,47.8,276.5,47.8,276.3z M52.1,278.9v4.1h-1.4
	v-5.3h1.3L52.1,278.9z M53.7,277.7l0,1.3c-0.1,0-0.2,0-0.2,0c-0.1,0-0.2,0-0.3,0c-0.2,0-0.4,0-0.5,0.1c-0.1,0-0.3,0.1-0.4,0.2
	c-0.1,0.1-0.2,0.2-0.2,0.4c0,0.1-0.1,0.3-0.1,0.5l-0.3-0.1c0-0.3,0-0.7,0.1-0.9c0.1-0.3,0.2-0.5,0.3-0.8c0.1-0.2,0.3-0.4,0.5-0.5
	c0.2-0.1,0.4-0.2,0.7-0.2c0.1,0,0.2,0,0.2,0C53.6,277.6,53.7,277.7,53.7,277.7z M57,283.1c-0.4,0-0.8-0.1-1.1-0.2
	c-0.3-0.1-0.6-0.3-0.8-0.6c-0.2-0.2-0.4-0.5-0.5-0.8c-0.1-0.3-0.2-0.6-0.2-1v-0.2c0-0.4,0.1-0.8,0.2-1.1c0.1-0.3,0.3-0.6,0.5-0.9
	c0.2-0.2,0.5-0.4,0.8-0.6c0.3-0.1,0.7-0.2,1-0.2c0.4,0,0.7,0.1,1,0.2c0.3,0.1,0.5,0.3,0.7,0.5c0.2,0.2,0.3,0.5,0.4,0.8
	c0.1,0.3,0.2,0.7,0.2,1.1v0.6H55v-0.9h2.8v-0.1c0-0.2,0-0.4-0.1-0.5c-0.1-0.2-0.2-0.3-0.3-0.4c-0.1-0.1-0.3-0.1-0.5-0.1
	c-0.2,0-0.3,0-0.5,0.1c-0.1,0.1-0.2,0.2-0.3,0.3c-0.1,0.1-0.1,0.3-0.2,0.5c0,0.2-0.1,0.4-0.1,0.6v0.2c0,0.2,0,0.4,0.1,0.6
	c0.1,0.2,0.1,0.3,0.3,0.5c0.1,0.1,0.3,0.2,0.4,0.3c0.2,0.1,0.3,0.1,0.6,0.1c0.3,0,0.5,0,0.7-0.1c0.2-0.1,0.4-0.3,0.6-0.5l0.7,0.7
	c-0.1,0.2-0.3,0.3-0.5,0.5c-0.2,0.1-0.4,0.3-0.7,0.4C57.7,283,57.4,283.1,57,283.1z M62.5,282c0.2,0,0.3,0,0.5-0.1
	c0.1-0.1,0.2-0.2,0.3-0.3c0.1-0.1,0.1-0.3,0.1-0.4h1.3c0,0.4-0.1,0.7-0.3,1c-0.2,0.3-0.5,0.5-0.8,0.7c-0.3,0.2-0.7,0.2-1.1,0.2
	c-0.4,0-0.8-0.1-1.1-0.2c-0.3-0.1-0.6-0.3-0.8-0.6c-0.2-0.2-0.4-0.5-0.5-0.8c-0.1-0.3-0.2-0.7-0.2-1v-0.1c0-0.4,0.1-0.7,0.2-1
	c0.1-0.3,0.3-0.6,0.5-0.8c0.2-0.2,0.5-0.4,0.8-0.6c0.3-0.1,0.7-0.2,1.1-0.2c0.4,0,0.8,0.1,1.1,0.2c0.3,0.2,0.6,0.4,0.8,0.7
	c0.2,0.3,0.3,0.7,0.3,1.1h-1.3c0-0.2,0-0.3-0.1-0.5c-0.1-0.1-0.2-0.3-0.3-0.3c-0.1-0.1-0.3-0.1-0.5-0.1c-0.2,0-0.4,0-0.5,0.1
	c-0.1,0.1-0.2,0.2-0.3,0.4c-0.1,0.1-0.1,0.3-0.2,0.5c0,0.2,0,0.4,0,0.6v0.1c0,0.2,0,0.4,0,0.6c0,0.2,0.1,0.4,0.1,0.5
	c0.1,0.1,0.2,0.3,0.3,0.3C62.1,281.9,62.3,282,62.5,282z M68.4,277.7v1h-3.1v-1H68.4z M66.1,276.4h1.4v5c0,0.2,0,0.3,0.1,0.4
	c0,0.1,0.1,0.1,0.2,0.2c0.1,0,0.2,0,0.3,0c0.1,0,0.2,0,0.2,0c0.1,0,0.1,0,0.2,0l0,1c-0.1,0-0.3,0.1-0.4,0.1c-0.1,0-0.3,0-0.5,0
	c-0.3,0-0.6-0.1-0.8-0.2c-0.2-0.1-0.4-0.3-0.5-0.5s-0.2-0.5-0.2-0.9V276.4z M74.6,283H73l0-1.1h1.5c0.4,0,0.7-0.1,1-0.3
	c0.3-0.2,0.5-0.4,0.6-0.8c0.1-0.3,0.2-0.7,0.2-1.2v-0.3c0-0.4,0-0.7-0.1-1c-0.1-0.3-0.2-0.5-0.3-0.7c-0.1-0.2-0.3-0.3-0.6-0.4
	c-0.2-0.1-0.5-0.1-0.8-0.1H73v-1.1h1.6c0.5,0,0.9,0.1,1.3,0.2c0.4,0.2,0.7,0.4,1,0.7c0.3,0.3,0.5,0.7,0.7,1.1
	c0.2,0.4,0.2,0.9,0.2,1.4v0.3c0,0.5-0.1,1-0.2,1.4c-0.2,0.4-0.4,0.8-0.7,1.1c-0.3,0.3-0.6,0.5-1,0.7C75.5,282.9,75,283,74.6,283z
	 M73.8,275.9v7.1h-1.5v-7.1H73.8z M81.5,283.1c-0.4,0-0.8-0.1-1.1-0.2c-0.3-0.1-0.6-0.3-0.8-0.6c-0.2-0.2-0.4-0.5-0.5-0.8
	c-0.1-0.3-0.2-0.6-0.2-1v-0.2c0-0.4,0.1-0.8,0.2-1.1c0.1-0.3,0.3-0.6,0.5-0.9c0.2-0.2,0.5-0.4,0.8-0.6c0.3-0.1,0.7-0.2,1-0.2
	c0.4,0,0.7,0.1,1,0.2c0.3,0.1,0.5,0.3,0.7,0.5c0.2,0.2,0.3,0.5,0.4,0.8c0.1,0.3,0.2,0.7,0.2,1.1v0.6h-4.2v-0.9h2.8v-0.1
	c0-0.2,0-0.4-0.1-0.5c-0.1-0.2-0.2-0.3-0.3-0.4c-0.1-0.1-0.3-0.1-0.5-0.1c-0.2,0-0.3,0-0.5,0.1c-0.1,0.1-0.2,0.2-0.3,0.3
	c-0.1,0.1-0.1,0.3-0.2,0.5c0,0.2-0.1,0.4-0.1,0.6v0.2c0,0.2,0,0.4,0.1,0.6c0.1,0.2,0.1,0.3,0.3,0.5c0.1,0.1,0.3,0.2,0.4,0.3
	c0.2,0.1,0.3,0.1,0.6,0.1c0.3,0,0.5,0,0.7-0.1c0.2-0.1,0.4-0.3,0.6-0.5l0.7,0.7c-0.1,0.2-0.3,0.3-0.5,0.5c-0.2,0.1-0.4,0.3-0.7,0.4
	C82.2,283,81.9,283.1,81.5,283.1z M86.2,278.7v6.3h-1.4v-7.3h1.3L86.2,278.7z M89.5,280.3v0.1c0,0.4,0,0.7-0.1,1.1
	c-0.1,0.3-0.2,0.6-0.4,0.9c-0.2,0.2-0.4,0.4-0.6,0.6c-0.3,0.1-0.5,0.2-0.9,0.2c-0.3,0-0.6-0.1-0.8-0.2c-0.2-0.1-0.4-0.3-0.6-0.5
	c-0.2-0.2-0.3-0.5-0.4-0.8c-0.1-0.3-0.2-0.6-0.2-1v-0.3c0.1-0.4,0.1-0.7,0.2-1.1c0.1-0.3,0.2-0.6,0.4-0.8c0.2-0.2,0.4-0.4,0.6-0.6
	c0.2-0.1,0.5-0.2,0.8-0.2c0.3,0,0.6,0.1,0.9,0.2c0.3,0.1,0.5,0.3,0.6,0.5c0.2,0.2,0.3,0.5,0.4,0.9C89.5,279.5,89.5,279.9,89.5,280.3
	z M88.1,280.4v-0.1c0-0.2,0-0.4-0.1-0.6c0-0.2-0.1-0.4-0.2-0.5c-0.1-0.1-0.2-0.3-0.3-0.3c-0.1-0.1-0.3-0.1-0.5-0.1
	c-0.2,0-0.4,0-0.5,0.1c-0.1,0.1-0.2,0.2-0.3,0.3c-0.1,0.1-0.1,0.3-0.2,0.4c0,0.2-0.1,0.3-0.1,0.6v0.7c0,0.2,0.1,0.5,0.1,0.7
	c0.1,0.2,0.2,0.3,0.3,0.4c0.2,0.1,0.4,0.2,0.6,0.2c0.2,0,0.3,0,0.5-0.1c0.1-0.1,0.2-0.2,0.3-0.3c0.1-0.1,0.1-0.3,0.2-0.5
	C88.1,280.8,88.1,280.6,88.1,280.4z M90.5,280.4v-0.1c0-0.4,0.1-0.7,0.2-1.1c0.1-0.3,0.3-0.6,0.5-0.9c0.2-0.2,0.5-0.4,0.8-0.6
	c0.3-0.1,0.7-0.2,1.1-0.2c0.4,0,0.8,0.1,1.1,0.2c0.3,0.1,0.6,0.3,0.8,0.6c0.2,0.2,0.4,0.5,0.5,0.9c0.1,0.3,0.2,0.7,0.2,1.1v0.1
	c0,0.4-0.1,0.7-0.2,1.1c-0.1,0.3-0.3,0.6-0.5,0.9c-0.2,0.2-0.5,0.4-0.8,0.6c-0.3,0.1-0.7,0.2-1.1,0.2s-0.8-0.1-1.1-0.2
	c-0.3-0.1-0.6-0.3-0.8-0.6c-0.2-0.2-0.4-0.5-0.5-0.9C90.6,281.1,90.5,280.8,90.5,280.4z M91.9,280.3v0.1c0,0.2,0,0.4,0.1,0.6
	c0,0.2,0.1,0.4,0.2,0.5c0.1,0.1,0.2,0.3,0.3,0.3c0.1,0.1,0.3,0.1,0.5,0.1c0.2,0,0.4,0,0.5-0.1c0.1-0.1,0.3-0.2,0.3-0.3
	c0.1-0.1,0.1-0.3,0.2-0.5c0-0.2,0.1-0.4,0.1-0.6v-0.1c0-0.2,0-0.4-0.1-0.6c0-0.2-0.1-0.4-0.2-0.5c-0.1-0.1-0.2-0.3-0.3-0.4
	c-0.1-0.1-0.3-0.1-0.5-0.1c-0.2,0-0.4,0-0.5,0.1c-0.1,0.1-0.2,0.2-0.3,0.4c-0.1,0.1-0.1,0.3-0.2,0.5
	C91.9,279.9,91.9,280.1,91.9,280.3z M99.5,281.5c0-0.1,0-0.2-0.1-0.3c-0.1-0.1-0.2-0.2-0.3-0.2c-0.2-0.1-0.4-0.1-0.7-0.2
	c-0.3-0.1-0.5-0.1-0.7-0.2c-0.2-0.1-0.4-0.2-0.6-0.3c-0.2-0.1-0.3-0.3-0.4-0.4c-0.1-0.2-0.1-0.4-0.1-0.6c0-0.2,0-0.4,0.1-0.6
	c0.1-0.2,0.2-0.4,0.4-0.5c0.2-0.2,0.4-0.3,0.7-0.4c0.3-0.1,0.6-0.1,0.9-0.1c0.5,0,0.9,0.1,1.2,0.2c0.3,0.1,0.6,0.3,0.8,0.6
	c0.2,0.3,0.3,0.5,0.3,0.9h-1.4c0-0.1,0-0.3-0.1-0.4c-0.1-0.1-0.1-0.2-0.3-0.3c-0.1-0.1-0.3-0.1-0.5-0.1c-0.2,0-0.3,0-0.4,0.1
	c-0.1,0.1-0.2,0.1-0.3,0.2c-0.1,0.1-0.1,0.2-0.1,0.3c0,0.1,0,0.2,0,0.2c0,0.1,0.1,0.1,0.2,0.2c0.1,0.1,0.2,0.1,0.3,0.1
	c0.1,0,0.3,0.1,0.5,0.1c0.4,0.1,0.7,0.2,1,0.3c0.3,0.1,0.5,0.3,0.7,0.5c0.2,0.2,0.3,0.5,0.3,0.8c0,0.2-0.1,0.5-0.2,0.6
	c-0.1,0.2-0.3,0.4-0.4,0.5c-0.2,0.1-0.4,0.3-0.7,0.3c-0.3,0.1-0.6,0.1-0.9,0.1c-0.5,0-0.9-0.1-1.2-0.3c-0.3-0.2-0.6-0.4-0.8-0.7
	c-0.2-0.3-0.3-0.6-0.3-0.8h1.3c0,0.2,0.1,0.3,0.1,0.5c0.1,0.1,0.2,0.2,0.4,0.3c0.1,0.1,0.3,0.1,0.5,0.1c0.2,0,0.3,0,0.5-0.1
	c0.1-0.1,0.2-0.1,0.3-0.2C99.5,281.7,99.5,281.6,99.5,281.5z M103.6,277.7v5.3h-1.4v-5.3H103.6z M102.1,276.3c0-0.2,0.1-0.4,0.2-0.5
	c0.1-0.1,0.3-0.2,0.6-0.2c0.2,0,0.4,0.1,0.6,0.2c0.1,0.1,0.2,0.3,0.2,0.5c0,0.2-0.1,0.4-0.2,0.5c-0.1,0.1-0.3,0.2-0.6,0.2
	c-0.2,0-0.4-0.1-0.6-0.2C102.2,276.7,102.1,276.5,102.1,276.3z M107.6,277.7v1h-3.1v-1H107.6z M105.3,276.4h1.4v5
	c0,0.2,0,0.3,0.1,0.4c0,0.1,0.1,0.1,0.2,0.2c0.1,0,0.2,0,0.3,0c0.1,0,0.2,0,0.2,0c0.1,0,0.1,0,0.2,0l0,1c-0.1,0-0.2,0.1-0.4,0.1
	c-0.1,0-0.3,0-0.5,0c-0.3,0-0.6-0.1-0.8-0.2c-0.2-0.1-0.4-0.3-0.5-0.5s-0.2-0.5-0.2-0.9V276.4z"/>
<path class="st9" d="M44.1,296.6c0-0.1,0-0.2-0.1-0.4c0-0.1-0.1-0.2-0.2-0.3c-0.1-0.1-0.2-0.2-0.4-0.2c-0.2-0.1-0.4-0.2-0.7-0.2
	c-0.3-0.1-0.5-0.2-0.8-0.3c-0.2-0.1-0.4-0.2-0.6-0.4c-0.2-0.1-0.3-0.3-0.4-0.5s-0.1-0.4-0.1-0.6c0-0.2,0-0.4,0.1-0.6
	c0.1-0.2,0.2-0.4,0.4-0.5c0.2-0.1,0.4-0.2,0.6-0.3c0.2-0.1,0.5-0.1,0.8-0.1c0.4,0,0.8,0.1,1.1,0.2c0.3,0.2,0.5,0.4,0.7,0.6
	c0.2,0.3,0.2,0.5,0.2,0.8h-0.8c0-0.2,0-0.4-0.1-0.6c-0.1-0.2-0.2-0.3-0.4-0.4c-0.2-0.1-0.4-0.1-0.7-0.1c-0.3,0-0.5,0-0.7,0.1
	c-0.2,0.1-0.3,0.2-0.4,0.3c-0.1,0.1-0.1,0.3-0.1,0.5c0,0.1,0,0.2,0.1,0.3c0.1,0.1,0.1,0.2,0.2,0.3c0.1,0.1,0.2,0.2,0.4,0.2
	c0.2,0.1,0.4,0.1,0.6,0.2c0.3,0.1,0.6,0.2,0.8,0.3c0.2,0.1,0.4,0.2,0.6,0.4c0.2,0.1,0.3,0.3,0.3,0.5c0.1,0.2,0.1,0.4,0.1,0.6
	c0,0.2,0,0.4-0.1,0.6c-0.1,0.2-0.2,0.3-0.4,0.5c-0.2,0.1-0.4,0.2-0.6,0.3c-0.2,0.1-0.5,0.1-0.8,0.1c-0.3,0-0.5,0-0.8-0.1
	c-0.3-0.1-0.5-0.2-0.7-0.3c-0.2-0.1-0.4-0.3-0.5-0.5c-0.1-0.2-0.2-0.5-0.2-0.8h0.8c0,0.2,0,0.4,0.1,0.5c0.1,0.1,0.2,0.3,0.3,0.3
	c0.1,0.1,0.3,0.2,0.4,0.2c0.2,0,0.3,0.1,0.5,0.1c0.3,0,0.5,0,0.7-0.1c0.2-0.1,0.3-0.2,0.4-0.3C44.1,296.9,44.1,296.7,44.1,296.6z
	 M48.6,297v-3.2h0.7v4.2h-0.7L48.6,297z M48.8,296.1l0.3,0c0,0.3,0,0.5-0.1,0.8c-0.1,0.2-0.2,0.4-0.3,0.6c-0.1,0.2-0.3,0.3-0.5,0.4
	c-0.2,0.1-0.5,0.1-0.8,0.1c-0.2,0-0.4,0-0.6-0.1c-0.2-0.1-0.3-0.2-0.4-0.3c-0.1-0.1-0.2-0.3-0.3-0.5c-0.1-0.2-0.1-0.4-0.1-0.7v-2.7
	h0.7v2.7c0,0.2,0,0.3,0.1,0.5c0,0.1,0.1,0.2,0.2,0.3c0.1,0.1,0.2,0.1,0.2,0.1c0.1,0,0.2,0,0.3,0c0.3,0,0.6-0.1,0.7-0.2
	c0.2-0.1,0.3-0.3,0.4-0.5C48.7,296.6,48.8,296.4,48.8,296.1z M53.5,293.8h0.7v4.1c0,0.4-0.1,0.7-0.2,1c-0.2,0.3-0.4,0.5-0.6,0.6
	c-0.3,0.1-0.6,0.2-0.9,0.2c-0.1,0-0.3,0-0.5-0.1c-0.2,0-0.4-0.1-0.6-0.2c-0.2-0.1-0.3-0.3-0.5-0.4l0.4-0.4c0.2,0.2,0.4,0.4,0.6,0.4
	c0.2,0.1,0.4,0.1,0.6,0.1c0.2,0,0.4,0,0.6-0.1c0.2-0.1,0.3-0.2,0.4-0.4c0.1-0.2,0.1-0.4,0.1-0.6v-3.2L53.5,293.8z M50.6,295.9
	L50.6,295.9c0-0.4,0-0.7,0.1-1c0.1-0.3,0.2-0.5,0.3-0.7c0.1-0.2,0.3-0.3,0.5-0.4c0.2-0.1,0.4-0.2,0.7-0.2c0.3,0,0.5,0,0.7,0.1
	c0.2,0.1,0.4,0.2,0.5,0.4c0.1,0.2,0.3,0.4,0.3,0.6s0.1,0.5,0.2,0.8v0.4c0,0.3-0.1,0.6-0.2,0.8c-0.1,0.2-0.2,0.5-0.3,0.6
	c-0.1,0.2-0.3,0.3-0.5,0.4c-0.2,0.1-0.4,0.1-0.7,0.1c-0.3,0-0.5-0.1-0.7-0.2c-0.2-0.1-0.4-0.3-0.5-0.4c-0.1-0.2-0.3-0.4-0.3-0.7
	C50.6,296.5,50.6,296.2,50.6,295.9z M51.3,295.8L51.3,295.8c0,0.3,0,0.5,0.1,0.7c0,0.2,0.1,0.3,0.2,0.5c0.1,0.1,0.2,0.3,0.3,0.3
	c0.1,0.1,0.3,0.1,0.5,0.1c0.2,0,0.4-0.1,0.6-0.2c0.2-0.1,0.3-0.2,0.4-0.4c0.1-0.2,0.2-0.3,0.2-0.5v-0.9c0-0.1-0.1-0.3-0.1-0.4
	c-0.1-0.1-0.1-0.3-0.2-0.4c-0.1-0.1-0.2-0.2-0.3-0.3c-0.1-0.1-0.3-0.1-0.5-0.1c-0.2,0-0.4,0-0.5,0.1c-0.1,0.1-0.3,0.2-0.3,0.3
	c-0.1,0.1-0.2,0.3-0.2,0.5C51.3,295.4,51.3,295.6,51.3,295.8z M57.3,298.1c-0.3,0-0.6,0-0.8-0.1c-0.2-0.1-0.4-0.2-0.6-0.4
	c-0.2-0.2-0.3-0.4-0.4-0.6c-0.1-0.2-0.1-0.5-0.1-0.8v-0.2c0-0.3,0.1-0.6,0.2-0.9c0.1-0.3,0.2-0.5,0.4-0.7c0.2-0.2,0.4-0.3,0.6-0.4
	c0.2-0.1,0.5-0.1,0.7-0.1c0.3,0,0.6,0.1,0.8,0.2c0.2,0.1,0.4,0.2,0.5,0.4c0.1,0.2,0.2,0.4,0.3,0.7c0.1,0.2,0.1,0.5,0.1,0.8v0.3h-3.2
	v-0.6h2.4v-0.1c0-0.2,0-0.4-0.1-0.5c-0.1-0.2-0.2-0.3-0.3-0.4c-0.1-0.1-0.3-0.2-0.6-0.2c-0.2,0-0.3,0-0.5,0.1
	c-0.1,0.1-0.3,0.2-0.4,0.3c-0.1,0.1-0.2,0.3-0.2,0.5c-0.1,0.2-0.1,0.4-0.1,0.7v0.2c0,0.2,0,0.4,0.1,0.6c0.1,0.2,0.1,0.3,0.2,0.5
	c0.1,0.1,0.2,0.2,0.4,0.3c0.2,0.1,0.3,0.1,0.5,0.1c0.3,0,0.5-0.1,0.6-0.2c0.2-0.1,0.3-0.2,0.5-0.4l0.4,0.3c-0.1,0.1-0.2,0.3-0.3,0.4
	s-0.3,0.2-0.5,0.3C57.8,298,57.6,298.1,57.3,298.1z M62.5,296.9c0-0.1,0-0.2-0.1-0.3c0-0.1-0.1-0.2-0.3-0.2
	c-0.1-0.1-0.3-0.1-0.6-0.2c-0.2,0-0.4-0.1-0.6-0.2c-0.2-0.1-0.3-0.1-0.5-0.2c-0.1-0.1-0.2-0.2-0.3-0.3c-0.1-0.1-0.1-0.3-0.1-0.5
	c0-0.2,0-0.3,0.1-0.5c0.1-0.1,0.2-0.3,0.3-0.4c0.1-0.1,0.3-0.2,0.5-0.3s0.4-0.1,0.6-0.1c0.3,0,0.6,0.1,0.9,0.2
	c0.2,0.1,0.4,0.3,0.6,0.5c0.1,0.2,0.2,0.4,0.2,0.7h-0.7c0-0.1,0-0.2-0.1-0.3c-0.1-0.1-0.2-0.2-0.3-0.3c-0.1-0.1-0.3-0.1-0.5-0.1
	c-0.2,0-0.4,0-0.5,0.1c-0.1,0.1-0.2,0.1-0.3,0.2c-0.1,0.1-0.1,0.2-0.1,0.3c0,0.1,0,0.1,0,0.2c0,0.1,0.1,0.1,0.1,0.2
	c0.1,0,0.2,0.1,0.3,0.1c0.1,0,0.3,0.1,0.5,0.1c0.3,0.1,0.6,0.2,0.9,0.3c0.2,0.1,0.4,0.2,0.5,0.4c0.1,0.2,0.2,0.4,0.2,0.6
	c0,0.2,0,0.4-0.1,0.5c-0.1,0.2-0.2,0.3-0.3,0.4c-0.1,0.1-0.3,0.2-0.5,0.3c-0.2,0.1-0.4,0.1-0.7,0.1c-0.4,0-0.7-0.1-0.9-0.2
	s-0.5-0.3-0.6-0.5c-0.1-0.2-0.2-0.4-0.2-0.7h0.7c0,0.2,0.1,0.4,0.2,0.5c0.1,0.1,0.2,0.2,0.4,0.2c0.2,0,0.3,0.1,0.4,0.1
	c0.2,0,0.4,0,0.5-0.1c0.1-0.1,0.2-0.1,0.3-0.2C62.5,297.1,62.5,297,62.5,296.9z M66.3,293.8v0.6H64v-0.6H66.3z M64.8,292.7h0.7v4.2
	c0,0.1,0,0.3,0.1,0.3c0,0.1,0.1,0.1,0.2,0.1c0.1,0,0.1,0,0.2,0c0.1,0,0.1,0,0.2,0c0.1,0,0.1,0,0.2,0l0,0.6c-0.1,0-0.1,0-0.2,0.1
	c-0.1,0-0.2,0-0.3,0c-0.2,0-0.3,0-0.5-0.1c-0.1-0.1-0.3-0.2-0.4-0.4c-0.1-0.2-0.1-0.4-0.1-0.7V292.7z M69.2,298.1
	c-0.3,0-0.6,0-0.8-0.1c-0.2-0.1-0.4-0.2-0.6-0.4c-0.2-0.2-0.3-0.4-0.4-0.6c-0.1-0.2-0.1-0.5-0.1-0.8v-0.2c0-0.3,0.1-0.6,0.2-0.9
	c0.1-0.3,0.2-0.5,0.4-0.7c0.2-0.2,0.4-0.3,0.6-0.4c0.2-0.1,0.5-0.1,0.7-0.1c0.3,0,0.6,0.1,0.8,0.2c0.2,0.1,0.4,0.2,0.5,0.4
	c0.1,0.2,0.2,0.4,0.3,0.7c0.1,0.2,0.1,0.5,0.1,0.8v0.3h-3.2v-0.6h2.4v-0.1c0-0.2,0-0.4-0.1-0.5c-0.1-0.2-0.2-0.3-0.3-0.4
	c-0.1-0.1-0.3-0.2-0.6-0.2c-0.2,0-0.3,0-0.5,0.1c-0.1,0.1-0.3,0.2-0.4,0.3c-0.1,0.1-0.2,0.3-0.2,0.5c-0.1,0.2-0.1,0.4-0.1,0.7v0.2
	c0,0.2,0,0.4,0.1,0.6c0.1,0.2,0.1,0.3,0.2,0.5c0.1,0.1,0.2,0.2,0.4,0.3c0.2,0.1,0.3,0.1,0.5,0.1c0.3,0,0.5-0.1,0.6-0.2
	s0.3-0.2,0.5-0.4l0.4,0.3c-0.1,0.1-0.2,0.3-0.3,0.4s-0.3,0.2-0.5,0.3C69.7,298,69.5,298.1,69.2,298.1z M74.6,297.2V292h0.7v6h-0.7
	L74.6,297.2z M71.8,295.9L71.8,295.9c0-0.4,0-0.7,0.1-1c0.1-0.3,0.2-0.5,0.3-0.7c0.1-0.2,0.3-0.3,0.5-0.4c0.2-0.1,0.4-0.2,0.7-0.2
	c0.3,0,0.5,0,0.7,0.1c0.2,0.1,0.4,0.2,0.5,0.4c0.1,0.2,0.3,0.4,0.3,0.6c0.1,0.2,0.1,0.5,0.2,0.8v0.4c0,0.3-0.1,0.6-0.2,0.8
	c-0.1,0.2-0.2,0.5-0.3,0.6c-0.1,0.2-0.3,0.3-0.5,0.4c-0.2,0.1-0.4,0.1-0.7,0.1c-0.2,0-0.5-0.1-0.7-0.2c-0.2-0.1-0.4-0.3-0.5-0.4
	c-0.1-0.2-0.3-0.4-0.3-0.7C71.8,296.5,71.8,296.2,71.8,295.9z M72.5,295.8L72.5,295.8c0,0.3,0,0.5,0.1,0.7c0,0.2,0.1,0.3,0.2,0.5
	c0.1,0.1,0.2,0.3,0.3,0.3c0.1,0.1,0.3,0.1,0.5,0.1c0.2,0,0.4-0.1,0.6-0.2c0.2-0.1,0.3-0.2,0.4-0.4c0.1-0.2,0.2-0.3,0.2-0.5v-0.9
	c0-0.1-0.1-0.3-0.1-0.4c-0.1-0.1-0.1-0.3-0.2-0.4c-0.1-0.1-0.2-0.2-0.3-0.3c-0.1-0.1-0.3-0.1-0.5-0.1c-0.2,0-0.4,0-0.5,0.1
	c-0.1,0.1-0.3,0.2-0.3,0.3c-0.1,0.1-0.2,0.3-0.2,0.5C72.5,295.4,72.5,295.6,72.5,295.8z M81.5,296.9c0-0.1,0-0.2-0.1-0.3
	c0-0.1-0.1-0.2-0.3-0.2c-0.1-0.1-0.3-0.1-0.6-0.2c-0.2,0-0.4-0.1-0.6-0.2c-0.2-0.1-0.3-0.1-0.5-0.2c-0.1-0.1-0.2-0.2-0.3-0.3
	s-0.1-0.3-0.1-0.5c0-0.2,0-0.3,0.1-0.5c0.1-0.1,0.2-0.3,0.3-0.4c0.1-0.1,0.3-0.2,0.5-0.3c0.2-0.1,0.4-0.1,0.6-0.1
	c0.3,0,0.6,0.1,0.9,0.2c0.2,0.1,0.4,0.3,0.6,0.5c0.1,0.2,0.2,0.4,0.2,0.7h-0.7c0-0.1,0-0.2-0.1-0.3c-0.1-0.1-0.2-0.2-0.3-0.3
	c-0.1-0.1-0.3-0.1-0.5-0.1c-0.2,0-0.4,0-0.5,0.1c-0.1,0.1-0.2,0.1-0.3,0.2c-0.1,0.1-0.1,0.2-0.1,0.3c0,0.1,0,0.1,0,0.2
	c0,0.1,0.1,0.1,0.1,0.2c0.1,0,0.2,0.1,0.3,0.1c0.1,0,0.3,0.1,0.5,0.1c0.3,0.1,0.6,0.2,0.9,0.3c0.2,0.1,0.4,0.2,0.5,0.4
	c0.1,0.2,0.2,0.4,0.2,0.6c0,0.2,0,0.4-0.1,0.5c-0.1,0.2-0.2,0.3-0.3,0.4c-0.1,0.1-0.3,0.2-0.5,0.3c-0.2,0.1-0.4,0.1-0.7,0.1
	c-0.4,0-0.7-0.1-0.9-0.2c-0.3-0.1-0.5-0.3-0.6-0.5c-0.1-0.2-0.2-0.4-0.2-0.7h0.7c0,0.2,0.1,0.4,0.2,0.5c0.1,0.1,0.2,0.2,0.4,0.2
	c0.2,0,0.3,0.1,0.4,0.1c0.2,0,0.4,0,0.5-0.1c0.1-0.1,0.2-0.1,0.3-0.2C81.5,297.1,81.5,297,81.5,296.9z M84.2,294.6v5h-0.7v-5.9h0.7
	L84.2,294.6z M87.1,295.8L87.1,295.8c0,0.4,0,0.7-0.1,0.9c-0.1,0.3-0.2,0.5-0.3,0.7c-0.1,0.2-0.3,0.3-0.5,0.4
	c-0.2,0.1-0.4,0.2-0.7,0.2c-0.3,0-0.5,0-0.7-0.1c-0.2-0.1-0.4-0.2-0.5-0.4c-0.1-0.2-0.3-0.4-0.3-0.6c-0.1-0.2-0.1-0.5-0.2-0.8v-0.4
	c0-0.3,0.1-0.6,0.2-0.8s0.2-0.5,0.3-0.6c0.1-0.2,0.3-0.3,0.5-0.4c0.2-0.1,0.4-0.1,0.7-0.1c0.3,0,0.5,0.1,0.7,0.2
	c0.2,0.1,0.4,0.2,0.5,0.4c0.1,0.2,0.2,0.4,0.3,0.7C87,295.2,87.1,295.5,87.1,295.8z M86.4,295.9L86.4,295.9c0-0.3,0-0.5-0.1-0.7
	c0-0.2-0.1-0.4-0.2-0.5c-0.1-0.1-0.2-0.3-0.4-0.3c-0.1-0.1-0.3-0.1-0.5-0.1c-0.2,0-0.3,0-0.5,0.1c-0.1,0.1-0.2,0.1-0.3,0.3
	c-0.1,0.1-0.2,0.2-0.2,0.4c-0.1,0.1-0.1,0.3-0.1,0.4v1c0.1,0.2,0.1,0.4,0.2,0.5c0.1,0.2,0.2,0.3,0.4,0.4c0.2,0.1,0.4,0.1,0.6,0.1
	c0.2,0,0.4,0,0.5-0.1c0.1-0.1,0.3-0.2,0.4-0.3c0.1-0.1,0.2-0.3,0.2-0.5C86.3,296.3,86.4,296.1,86.4,295.9z M89.1,292v6h-0.7v-6H89.1
	z M91.3,293.8v4.2h-0.7v-4.2H91.3z M90.6,292.6c0-0.1,0-0.2,0.1-0.3c0.1-0.1,0.2-0.1,0.3-0.1c0.1,0,0.2,0,0.3,0.1
	c0.1,0.1,0.1,0.2,0.1,0.3c0,0.1,0,0.2-0.1,0.3c-0.1,0.1-0.2,0.1-0.3,0.1c-0.1,0-0.2,0-0.3-0.1C90.6,292.9,90.6,292.8,90.6,292.6z
	 M94.6,293.8v0.6h-2.3v-0.6H94.6z M93.1,292.7h0.7v4.2c0,0.1,0,0.3,0.1,0.3c0,0.1,0.1,0.1,0.2,0.1c0.1,0,0.1,0,0.2,0
	c0.1,0,0.1,0,0.2,0c0.1,0,0.1,0,0.2,0l0,0.6c-0.1,0-0.1,0-0.2,0.1c-0.1,0-0.2,0-0.3,0c-0.2,0-0.3,0-0.5-0.1
	c-0.1-0.1-0.3-0.2-0.4-0.4c-0.1-0.2-0.1-0.4-0.1-0.7V292.7z"/>
<path class="st10" d="M138.2,283.9v7.1h-1.5v-7.1H138.2z M140.4,283.9v1.1h-5.8v-1.1H140.4z M140.4,288.4v-0.1
	c0-0.4,0.1-0.7,0.2-1.1c0.1-0.3,0.3-0.6,0.5-0.9c0.2-0.2,0.5-0.4,0.8-0.6c0.3-0.1,0.7-0.2,1.1-0.2c0.4,0,0.8,0.1,1.1,0.2
	c0.3,0.1,0.6,0.3,0.8,0.6c0.2,0.2,0.4,0.5,0.5,0.9c0.1,0.3,0.2,0.7,0.2,1.1v0.1c0,0.4-0.1,0.7-0.2,1.1c-0.1,0.3-0.3,0.6-0.5,0.9
	c-0.2,0.2-0.5,0.4-0.8,0.6c-0.3,0.1-0.7,0.2-1.1,0.2c-0.4,0-0.8-0.1-1.1-0.2c-0.3-0.1-0.6-0.3-0.8-0.6c-0.2-0.2-0.4-0.5-0.5-0.9
	C140.5,289.1,140.4,288.8,140.4,288.4z M141.8,288.3v0.1c0,0.2,0,0.4,0.1,0.6c0,0.2,0.1,0.4,0.2,0.5c0.1,0.1,0.2,0.3,0.3,0.3
	c0.1,0.1,0.3,0.1,0.5,0.1c0.2,0,0.4,0,0.5-0.1c0.1-0.1,0.3-0.2,0.3-0.3c0.1-0.1,0.1-0.3,0.2-0.5c0-0.2,0.1-0.4,0.1-0.6v-0.1
	c0-0.2,0-0.4-0.1-0.6c0-0.2-0.1-0.4-0.2-0.5c-0.1-0.1-0.2-0.3-0.3-0.4c-0.1-0.1-0.3-0.1-0.5-0.1c-0.2,0-0.4,0-0.5,0.1
	c-0.1,0.1-0.2,0.2-0.3,0.4c-0.1,0.1-0.1,0.3-0.2,0.5C141.8,287.9,141.8,288.1,141.8,288.3z M149.7,289.8v-6.3h1.4v7.5h-1.3
	L149.7,289.8z M146.4,288.4v-0.1c0-0.4,0-0.8,0.1-1.1c0.1-0.3,0.2-0.6,0.4-0.9c0.2-0.2,0.4-0.4,0.6-0.6c0.3-0.1,0.6-0.2,0.9-0.2
	c0.3,0,0.6,0.1,0.8,0.2c0.2,0.1,0.4,0.3,0.6,0.6c0.2,0.2,0.3,0.5,0.4,0.8c0.1,0.3,0.2,0.7,0.2,1.1v0.2c0,0.4-0.1,0.7-0.2,1
	c-0.1,0.3-0.2,0.6-0.4,0.8c-0.2,0.2-0.4,0.4-0.6,0.5c-0.2,0.1-0.5,0.2-0.8,0.2c-0.3,0-0.6-0.1-0.9-0.2c-0.3-0.1-0.5-0.3-0.6-0.6
	c-0.2-0.2-0.3-0.5-0.4-0.9C146.4,289.2,146.4,288.8,146.4,288.4z M147.8,288.3v0.1c0,0.2,0,0.4,0,0.6c0,0.2,0.1,0.4,0.2,0.5
	c0.1,0.1,0.2,0.3,0.3,0.3c0.1,0.1,0.3,0.1,0.5,0.1c0.2,0,0.4-0.1,0.6-0.2c0.2-0.1,0.3-0.3,0.4-0.5c0.1-0.2,0.1-0.4,0.1-0.7v-0.6
	c0-0.2,0-0.4-0.1-0.6c0-0.2-0.1-0.3-0.2-0.4c-0.1-0.1-0.2-0.2-0.3-0.3c-0.1-0.1-0.3-0.1-0.5-0.1c-0.2,0-0.3,0-0.5,0.1
	c-0.1,0.1-0.2,0.2-0.3,0.3c-0.1,0.1-0.1,0.3-0.2,0.5C147.8,287.9,147.8,288.1,147.8,288.3z M155.4,289.8v-2.4c0-0.2,0-0.3-0.1-0.4
	c-0.1-0.1-0.1-0.2-0.3-0.3c-0.1-0.1-0.3-0.1-0.4-0.1c-0.2,0-0.3,0-0.4,0.1c-0.1,0.1-0.2,0.1-0.3,0.2c-0.1,0.1-0.1,0.2-0.1,0.3h-1.4
	c0-0.2,0.1-0.4,0.2-0.6c0.1-0.2,0.3-0.4,0.5-0.5c0.2-0.2,0.4-0.3,0.7-0.4c0.3-0.1,0.6-0.1,0.9-0.1c0.4,0,0.8,0.1,1.1,0.2
	c0.3,0.1,0.6,0.3,0.8,0.6c0.2,0.3,0.3,0.6,0.3,1v2.3c0,0.3,0,0.5,0.1,0.7c0,0.2,0.1,0.3,0.2,0.5v0.1h-1.4c-0.1-0.1-0.1-0.3-0.2-0.5
	C155.4,290.2,155.4,290,155.4,289.8z M155.6,287.8l0,0.8h-0.8c-0.2,0-0.3,0-0.5,0.1c-0.1,0-0.2,0.1-0.3,0.2
	c-0.1,0.1-0.2,0.2-0.2,0.3c0,0.1-0.1,0.2-0.1,0.3s0,0.2,0.1,0.3c0.1,0.1,0.1,0.2,0.2,0.2c0.1,0.1,0.2,0.1,0.4,0.1
	c0.2,0,0.4,0,0.6-0.1c0.2-0.1,0.3-0.2,0.4-0.3c0.1-0.1,0.1-0.2,0.1-0.4l0.4,0.6c-0.1,0.1-0.1,0.3-0.2,0.4c-0.1,0.1-0.2,0.3-0.3,0.4
	c-0.1,0.1-0.3,0.2-0.5,0.3c-0.2,0.1-0.4,0.1-0.7,0.1c-0.3,0-0.6-0.1-0.9-0.2c-0.3-0.1-0.5-0.3-0.6-0.6c-0.2-0.2-0.2-0.5-0.2-0.8
	c0-0.3,0.1-0.5,0.2-0.7c0.1-0.2,0.3-0.4,0.5-0.5c0.2-0.1,0.5-0.3,0.8-0.3c0.3-0.1,0.7-0.1,1.1-0.1H155.6z M159.7,290.4l1.4-4.7h1.5
	l-2.1,6.1c0,0.1-0.1,0.3-0.2,0.4c-0.1,0.2-0.2,0.3-0.3,0.4c-0.1,0.1-0.3,0.3-0.5,0.3c-0.2,0.1-0.4,0.1-0.7,0.1c-0.1,0-0.2,0-0.3,0
	c-0.1,0-0.2,0-0.3-0.1v-1c0,0,0.1,0,0.1,0c0,0,0.1,0,0.1,0c0.2,0,0.3,0,0.5-0.1c0.1,0,0.2-0.1,0.3-0.2c0.1-0.1,0.1-0.2,0.2-0.3
	L159.7,290.4z M159.1,285.7l1.1,3.8l0.2,1.5l-1,0.1l-1.9-5.4H159.1z"/>
</svg>
